<?xml version="1.0" encoding="UTF-8"?><svg xmlns="http://www.w3.org/2000/svg" viewBox="0 0 132 189"><defs><style>.d{fill:#fff;}</style></defs><g id="a"/><g id="b"><g id="c"><path class="d" d="M66,189C29.61,189,0,159.39,0,123c0-20.47,17.63-54.93,28.15-73.65,6.75-12.01,13.98-23.67,20.36-32.82C59.25,1.15,62.41,0,66,0s6.75,1.15,17.49,16.54c6.38,9.15,13.62,20.8,20.36,32.82,10.51,18.72,28.15,53.17,28.15,73.65,0,36.39-29.61,66-66,66Zm0-172.67C52.88,32.24,14,96.91,14,123c0,28.67,23.33,52,52,52s52-23.33,52-52c0-26.09-38.88-90.76-52-106.67Z"/></g></g></svg>