<?xml version="1.0" encoding="UTF-8"?><svg xmlns="http://www.w3.org/2000/svg" viewBox="0 0 224 229.5"><defs><style>.d{stroke-width:5px;}.d,.e{fill:none;stroke:#fff;stroke-miterlimit:10;}.e{stroke-linecap:round;stroke-width:4px;}</style></defs><g id="a"/><g id="b"><g id="c"><path class="d" d="M150,177.5l-.45,1.58-11.02,38.43c-.88,5.47-5.6,9.49-11.15,9.49h-30.26c-5.55,0-10.27-4.02-11.15-9.49l-11.47-40.01h75.5Z"/><path class="d" d="M149.55,179.08l.45-1.58H74.6c-20.06-29.19-36.6-72.13-36.6-97.5C38,38.85,71.35,5.5,112.5,5.5s74.5,33.35,74.5,74.5c0,25.83-17.14,69.88-37.45,99.08Z"/><line class="e" x1="174" y1="21.5" x2="193.5" y2="2"/><line class="e" x1="187" y1="36.5" x2="210" y2="22.5"/><line class="e" x1="191" y1="54.5" x2="222" y2="46.5"/><line class="e" x1="52" y1="21.5" x2="32" y2="2.5"/><line class="e" x1="40" y1="37.5" x2="17" y2="23.5"/><line class="e" x1="32" y1="53.5" x2="2" y2="47.5"/></g></g></svg>