<?xml version="1.0" encoding="UTF-8"?><svg xmlns="http://www.w3.org/2000/svg" viewBox="0 0 256 256"><defs><style>.d{fill:#fff;}</style></defs><g id="a"/><g id="b"><g id="c"><path class="d" d="M13.5,135c-5.71,0-10.59,3.54-12.56,8.55-.62-5.1-.94-10.28-.94-15.55,0-1.66,.03-3.31,.09-4.95,.77,6.73,6.47,11.95,13.41,11.95Z"/><path class="d" d="M13.5,108c-6.4,0-11.76,4.45-13.15,10.43,.4-5.44,1.15-10.79,2.21-16.02,2.45,3.39,6.44,5.59,10.94,5.59Z"/><path class="d" d="M13.5,162c-3.06,0-5.87,1.01-8.14,2.73-.72-2.38-1.37-4.8-1.94-7.24,2.48,2.77,6.07,4.51,10.08,4.51Z"/><path class="d" d="M135,13.5c0-6.94-5.22-12.64-11.95-13.41,1.64-.06,3.29-.09,4.95-.09,5.27,0,10.45,.32,15.55,.94-5.01,1.97-8.55,6.85-8.55,12.56Z"/><path class="d" d="M108,13.5c0-4.5-2.2-8.49-5.59-10.94,5.23-1.06,10.58-1.81,16.02-2.21-5.98,1.39-10.43,6.75-10.43,13.15Z"/><path class="d" d="M164.73,5.36c-1.72,2.27-2.73,5.08-2.73,8.14,0-4.01-1.74-7.6-4.51-10.08,2.44,.57,4.86,1.22,7.24,1.94Z"/><path class="d" d="M216.83,35.84c-.54,1.45-.83,3.02-.83,4.66,0-2.82-.87-5.44-2.34-7.61,1.08,.97,2.13,1.95,3.17,2.95Z"/><path class="d" d="M208.27,28.29c-1.75-.83-3.7-1.29-5.77-1.29,1.22,0,2.41-.16,3.53-.47,.75,.58,1.5,1.17,2.24,1.76Z"/><path class="d" d="M81,13.5c0,7.46-6.04,13.5-13.5,13.5-4.39,0-8.29-2.09-10.76-5.34,7.34-4.93,15.23-9.13,23.55-12.47,.46,1.35,.71,2.8,.71,4.31Z"/><path class="d" d="M108,13.5c0,7.46-6.04,13.5-13.5,13.5s-13.5-6.04-13.5-13.5c0-1.75,.33-3.42,.94-4.95,6.58-2.55,13.42-4.56,20.47-5.99,3.39,2.45,5.59,6.44,5.59,10.94Z"/><path class="d" d="M135,13.5c0,7.46-6.04,13.5-13.5,13.5s-13.5-6.04-13.5-13.5c0-6.4,4.45-11.76,10.43-13.15,1.53-.11,3.06-.2,4.6-.26h.02c6.73,.77,11.95,6.47,11.95,13.41Z"/><path class="d" d="M123.03,.09c-1.54,.06-3.07,.15-4.6,.26,.98-.23,2.01-.35,3.07-.35,.52,0,1.03,.03,1.53,.09Z"/><path class="d" d="M162,13.5c0,7.46-6.04,13.5-13.5,13.5s-13.5-6.04-13.5-13.5c0-5.71,3.54-10.59,8.55-12.56h.01c4.73,.57,9.38,1.4,13.93,2.48,2.77,2.48,4.51,6.07,4.51,10.08Z"/><path class="d" d="M188.86,15.37c-.9,6.57-6.53,11.63-13.36,11.63-7.46,0-13.5-6.04-13.5-13.5,0-3.06,1.01-5.87,2.73-8.14,8.44,2.52,16.52,5.89,24.13,10.01Z"/><path class="d" d="M206.03,26.53c-1.12,.31-2.31,.47-3.53,.47-6.77,0-12.37-4.98-13.34-11.47,5.92,3.23,11.56,6.91,16.87,11Z"/><path class="d" d="M54,40.5c0,7.46-6.04,13.5-13.5,13.5-5.04,0-9.43-2.75-11.74-6.84,5.49-6.74,11.66-12.91,18.4-18.4,4.09,2.31,6.84,6.7,6.84,11.74Z"/><circle class="d" cx="67.5" cy="40.5" r="13.5"/><circle class="d" cx="94.5" cy="40.5" r="13.5"/><circle class="d" cx="121.5" cy="40.5" r="13.5"/><circle class="d" cx="148.5" cy="40.5" r="13.5"/><circle class="d" cx="175.5" cy="40.5" r="13.5"/><path class="d" d="M216,40.5c0,7.46-6.04,13.5-13.5,13.5s-13.5-6.04-13.5-13.5,6.04-13.5,13.5-13.5c2.07,0,4.02,.46,5.77,1.29t.01,.01c1.83,1.47,3.63,3.01,5.37,4.58,0,0,0,.01,0,.01,1.47,2.17,2.34,4.79,2.34,7.61Z"/><path class="d" d="M213.65,32.88c-1.74-1.57-3.54-3.11-5.37-4.58,2.17,1.03,4.02,2.62,5.37,4.58Z"/><path class="d" d="M27,67.5c0,7.46-6.04,13.5-13.5,13.5-1.51,0-2.96-.25-4.31-.71,3.34-8.32,7.54-16.21,12.47-23.55,3.25,2.47,5.34,6.37,5.34,10.76Z"/><circle class="d" cx="40.5" cy="67.5" r="13.5"/><circle class="d" cx="67.5" cy="67.5" r="13.5"/><circle class="d" cx="94.5" cy="67.5" r="13.5"/><circle class="d" cx="121.5" cy="67.5" r="13.5"/><circle class="d" cx="148.5" cy="67.5" r="13.5"/><circle class="d" cx="175.5" cy="67.5" r="13.5"/><circle class="d" cx="202.5" cy="67.5" r="13.5"/><path class="d" d="M27,94.5c0,7.46-6.04,13.5-13.5,13.5-4.5,0-8.49-2.2-10.94-5.59,1.43-7.05,3.44-13.89,5.99-20.47,1.53-.61,3.2-.94,4.95-.94,7.46,0,13.5,6.04,13.5,13.5Z"/><circle class="d" cx="40.5" cy="94.5" r="13.5"/><circle class="d" cx="67.5" cy="94.5" r="13.5"/><circle class="d" cx="94.5" cy="94.5" r="13.5"/><circle class="d" cx="121.5" cy="94.5" r="13.5"/><circle class="d" cx="148.5" cy="94.5" r="13.5"/><circle class="d" cx="175.5" cy="94.5" r="13.5"/><circle class="d" cx="202.5" cy="94.5" r="13.5"/><path class="d" d="M27,121.5c0,7.46-6.04,13.5-13.5,13.5-6.94,0-12.64-5.22-13.41-11.95v-.02c.06-1.54,.15-3.07,.26-4.6,1.39-5.98,6.75-10.43,13.15-10.43,7.46,0,13.5,6.04,13.5,13.5Z"/><path class="d" d="M.35,118.43c-.11,1.53-.2,3.06-.26,4.6-.06-.5-.09-1.01-.09-1.53,0-1.06,.12-2.09,.35-3.07Z"/><circle class="d" cx="40.5" cy="121.5" r="13.5"/><circle class="d" cx="67.5" cy="121.5" r="13.5"/><circle class="d" cx="94.5" cy="121.5" r="13.5"/><circle class="d" cx="121.5" cy="121.5" r="13.5"/><circle class="d" cx="148.5" cy="121.5" r="13.5"/><circle class="d" cx="175.5" cy="121.5" r="13.5"/><circle class="d" cx="202.5" cy="121.5" r="13.5"/><path class="d" d="M27,148.5c0,7.46-6.04,13.5-13.5,13.5-4.01,0-7.6-1.74-10.08-4.51-1.08-4.55-1.91-9.2-2.48-13.93,0,0-.01-.01,0-.01,1.97-5.01,6.85-8.55,12.56-8.55,7.46,0,13.5,6.04,13.5,13.5Z"/><path class="d" d="M3.42,157.49c-2.13-2.39-3.42-5.54-3.42-8.99,0-1.74,.33-3.41,.94-4.94,.57,4.73,1.4,9.38,2.48,13.93Z"/><circle class="d" cx="40.5" cy="148.5" r="13.5"/><circle class="d" cx="67.5" cy="148.5" r="13.5"/><circle class="d" cx="94.5" cy="148.5" r="13.5"/><circle class="d" cx="121.5" cy="148.5" r="13.5"/><circle class="d" cx="148.5" cy="148.5" r="13.5"/><circle class="d" cx="175.5" cy="148.5" r="13.5"/><circle class="d" cx="202.5" cy="148.5" r="13.5"/><path class="d" d="M27,175.5c0,6.83-5.06,12.46-11.63,13.36-4.12-7.61-7.49-15.69-10.01-24.13,2.27-1.72,5.08-2.73,8.14-2.73,7.46,0,13.5,6.04,13.5,13.5Z"/><path class="d" d="M54,175.5c0,.33-.01,.65-.04,.97-.01,.18-.03,.35-.05,.53-.02,.25-.05,.5-.1,.74-.04,.25-.09,.51-.15,.76-.05,.22-.1,.43-.16,.64-.08,.31-.18,.61-.29,.9-.07,.2-.14,.39-.22,.58-.06,.16-.13,.32-.21,.48-.07,.17-.15,.34-.24,.51-.02,.05-.04,.09-.07,.13-.09,.18-.19,.35-.29,.52-.1,.17-.2,.35-.31,.52-.11,.17-.22,.33-.34,.5-.12,.16-.24,.33-.36,.49-.19,.24-.38,.47-.58,.7-.2,.22-.41,.44-.62,.65-.43,.42-.89,.82-1.37,1.18-.16,.12-.32,.24-.49,.35-.17,.12-.34,.23-.51,.33-.17,.11-.35,.21-.52,.31-.97,.55-2.02,.97-3.12,1.26-.25,.07-.49,.13-.74,.18-.22,.04-.44,.08-.66,.11-.18,.03-.37,.06-.55,.07-.5,.06-1,.09-1.51,.09-7.46,0-13.5-6.04-13.5-13.5s6.04-13.5,13.5-13.5,13.23,5.77,13.49,13c.01,.17,.01,.33,.01,.5Z"/><path class="d" d="M48.6,186.3c.48-.36,.94-.76,1.37-1.18-.43,.43-.89,.82-1.37,1.18Z"/><path class="d" d="M81,175.5c0,.33-.01,.65-.04,.97-.01,.18-.03,.35-.05,.53-.02,.25-.05,.5-.1,.74-.04,.25-.09,.51-.15,.76-.05,.22-.1,.43-.16,.64-.03,.13-.07,.25-.11,.37-.04,.15-.09,.29-.14,.42-.01,.04-.02,.08-.04,.11-.07,.2-.14,.39-.22,.58-.06,.16-.13,.32-.21,.48-.06,.15-.13,.3-.21,.45-.03,.07-.06,.13-.1,.19-.09,.18-.19,.35-.29,.52-.1,.17-.2,.35-.31,.52-.11,.17-.22,.33-.34,.5-.12,.16-.24,.33-.36,.49-.19,.24-.38,.47-.58,.7-.2,.22-.41,.44-.62,.65-.43,.42-.89,.82-1.37,1.18-.16,.12-.32,.24-.49,.35-.17,.12-.34,.23-.51,.33-.17,.11-.35,.21-.52,.31-.64,.36-1.3,.66-2,.91-.18,.07-.36,.13-.55,.18-.18,.07-.38,.12-.57,.17-.25,.07-.49,.13-.74,.18-.4,.08-.8,.14-1.21,.18-.18,.02-.35,.04-.53,.05-.32,.03-.65,.04-.98,.04s-.66-.01-.98-.04c-.18,0-.35-.03-.53-.05-.41-.04-.81-.1-1.21-.18-.25-.05-.49-.11-.74-.18-.19-.05-.39-.1-.57-.17-.19-.05-.37-.11-.55-.18-.7-.25-1.36-.55-2-.91-.17-.1-.35-.2-.52-.31-.17-.1-.34-.21-.51-.33-.17-.11-.33-.23-.49-.35-.48-.36-.94-.76-1.37-1.18-.21-.21-.42-.43-.62-.65-.2-.23-.39-.46-.58-.7-.12-.16-.24-.33-.36-.49-.12-.17-.23-.33-.34-.5-.11-.17-.21-.35-.31-.52-.1-.17-.2-.34-.29-.52-.04-.06-.07-.12-.1-.19-.08-.15-.15-.3-.21-.45-.08-.16-.15-.32-.21-.48-.08-.19-.15-.38-.22-.58-.02-.03-.03-.07-.04-.11-.05-.13-.1-.27-.14-.42-.04-.12-.08-.24-.11-.37-.06-.21-.11-.42-.16-.64-.06-.25-.11-.51-.15-.76-.04-.2-.07-.39-.08-.59-.03-.16-.05-.31-.05-.47-.02-.16-.03-.32-.04-.48-.01-.24-.02-.47-.02-.7,0-.17,0-.33,.01-.5,.26-7.23,6.2-13,13.49-13s13.5,6.04,13.5,13.5Z"/><path class="d" d="M58.03,185.12c.43,.42,.89,.82,1.37,1.18-.48-.36-.94-.75-1.37-1.18Z"/><path class="d" d="M75.6,186.3c.48-.36,.94-.76,1.37-1.18-.43,.43-.89,.82-1.37,1.18Z"/><path class="d" d="M108,175.5c0,.33-.01,.65-.04,.97-.01,.18-.03,.35-.05,.53-.02,.25-.05,.5-.1,.74-.04,.25-.09,.51-.15,.76-.05,.22-.1,.43-.16,.64-.08,.31-.18,.61-.29,.9-.07,.2-.14,.39-.22,.58-.06,.16-.13,.32-.21,.48-.09,.22-.2,.43-.31,.64-.09,.18-.19,.35-.29,.52-.1,.17-.2,.35-.31,.52-.11,.17-.22,.33-.34,.5-.12,.16-.24,.33-.36,.49-.19,.24-.38,.47-.58,.7-.2,.22-.41,.44-.62,.65-.43,.42-.89,.82-1.37,1.18-.16,.12-.32,.24-.49,.35-.17,.12-.34,.23-.51,.33-.17,.11-.35,.21-.52,.31-.37,.21-.74,.4-1.13,.56-.11,.05-.23,.1-.35,.15-.53,.22-1.08,.4-1.64,.55-.25,.07-.49,.13-.74,.18-.34,.07-.69,.12-1.05,.16-.05,0-.11,.02-.16,.02-.17,.02-.33,.04-.5,.05-.33,.03-.67,.04-1.01,.04s-.68-.01-1.01-.04c-.17,0-.33-.03-.5-.05-.05,0-.11-.01-.16-.02-.36-.04-.71-.09-1.05-.16-.25-.05-.49-.11-.74-.18-.56-.15-1.11-.33-1.64-.55-.12-.05-.24-.1-.35-.15-.39-.16-.76-.35-1.13-.56-.17-.1-.35-.2-.52-.31-.17-.1-.34-.21-.51-.33-.17-.11-.33-.23-.49-.35-.48-.36-.94-.76-1.37-1.18-.21-.21-.42-.43-.62-.65-.2-.23-.39-.46-.58-.7-.12-.16-.24-.33-.36-.49-.12-.17-.23-.33-.34-.5-.11-.17-.21-.35-.31-.52-.1-.17-.2-.34-.29-.52-.11-.21-.22-.42-.31-.64-.08-.16-.15-.32-.21-.48-.08-.19-.15-.38-.22-.58-.11-.29-.21-.59-.29-.9-.06-.21-.11-.42-.16-.64-.06-.25-.11-.51-.15-.76-.05-.24-.08-.49-.1-.74-.02-.09-.03-.17-.03-.26-.04-.41-.06-.82-.06-1.24,0-7.46,6.04-13.5,13.5-13.5s13.5,6.04,13.5,13.5Z"/><path class="d" d="M85.03,185.12c.43,.42,.89,.82,1.37,1.18-.48-.36-.94-.75-1.37-1.18Z"/><path class="d" d="M102.6,186.3c.48-.36,.94-.76,1.37-1.18-.43,.43-.89,.82-1.37,1.18Z"/><path class="d" d="M135,175.5c0,.33-.01,.65-.04,.97-.01,.18-.03,.35-.05,.53-.02,.25-.05,.5-.1,.74-.04,.25-.09,.51-.15,.76-.05,.22-.1,.43-.16,.64-.03,.13-.07,.25-.11,.37-.04,.15-.09,.29-.14,.42-.01,.04-.02,.08-.04,.11-.07,.2-.14,.39-.22,.58-.06,.16-.13,.32-.21,.48-.09,.22-.2,.43-.31,.64-.09,.18-.19,.35-.29,.52-.1,.17-.2,.35-.31,.52-.11,.17-.22,.33-.34,.5-.12,.16-.24,.33-.36,.49-.19,.24-.38,.47-.58,.7-.2,.22-.41,.44-.62,.65-.43,.42-.89,.82-1.37,1.18-.16,.12-.32,.24-.49,.35-.17,.12-.34,.23-.51,.33-.17,.11-.35,.21-.52,.31-.37,.21-.74,.4-1.13,.56-.11,.05-.23,.1-.35,.15-.24,.1-.48,.19-.72,.27-.3,.11-.61,.2-.92,.28-.25,.07-.49,.13-.74,.18-.4,.08-.8,.14-1.21,.18-.13,.02-.26,.03-.39,.04-.37,.03-.74,.05-1.12,.05s-.75-.02-1.12-.05c-.13-.01-.26-.02-.39-.04-.41-.04-.81-.1-1.21-.18-.25-.05-.49-.11-.74-.18-.31-.08-.62-.17-.92-.28-.24-.08-.48-.17-.72-.27-.12-.05-.24-.1-.35-.15-.39-.16-.76-.35-1.13-.56-.17-.1-.35-.2-.52-.31-.17-.1-.34-.21-.51-.33-.17-.11-.33-.23-.49-.35-.48-.36-.94-.76-1.37-1.18-.21-.21-.42-.43-.62-.65-.2-.23-.39-.46-.58-.7-.12-.16-.24-.33-.36-.49-.12-.17-.23-.33-.34-.5-.11-.17-.21-.35-.31-.52-.1-.17-.2-.34-.29-.52-.11-.21-.22-.42-.31-.64-.08-.16-.15-.32-.21-.48-.08-.19-.15-.38-.22-.58-.02-.03-.03-.07-.04-.11-.05-.13-.1-.27-.14-.42-.04-.12-.08-.24-.11-.37-.06-.21-.11-.42-.16-.64-.06-.25-.11-.51-.15-.76-.05-.24-.08-.49-.1-.74-.02-.09-.03-.17-.03-.26-.04-.41-.06-.82-.06-1.24,0-7.46,6.04-13.5,13.5-13.5s13.5,6.04,13.5,13.5Z"/><path class="d" d="M112.03,185.12c.43,.42,.89,.82,1.37,1.18-.48-.36-.94-.75-1.37-1.18Z"/><path class="d" d="M129.6,186.3c.48-.36,.94-.76,1.37-1.18-.43,.43-.89,.82-1.37,1.18Z"/><path class="d" d="M162,175.5c0,.33-.01,.65-.04,.97-.01,.18-.03,.35-.05,.53-.02,.25-.05,.5-.1,.74-.04,.25-.09,.51-.15,.76-.05,.22-.1,.43-.16,.64-.08,.31-.18,.61-.29,.9-.07,.2-.14,.39-.22,.58-.06,.16-.13,.32-.21,.48-.09,.22-.2,.43-.31,.64-.09,.18-.19,.35-.29,.52-.1,.17-.2,.35-.31,.52-.11,.17-.22,.33-.34,.5-.12,.16-.24,.33-.36,.49-.19,.24-.38,.47-.58,.7-.2,.22-.41,.44-.62,.65-.43,.42-.89,.82-1.37,1.18-.16,.12-.32,.24-.49,.35-.17,.12-.34,.23-.51,.33-.17,.11-.35,.21-.52,.31-.37,.21-.74,.4-1.13,.56-.11,.05-.23,.1-.35,.15-.21,.09-.43,.17-.64,.24-.32,.12-.66,.22-1,.31-.25,.07-.49,.13-.74,.18-.34,.07-.69,.12-1.05,.16-.05,0-.11,.02-.16,.02-.12,.02-.24,.03-.36,.04l-.45,.03c-.24,.01-.47,.02-.7,.02s-.46-.01-.7-.02l-.45-.03c-.12-.01-.24-.02-.36-.04-.05,0-.11-.01-.16-.02-.36-.04-.71-.09-1.05-.16-.25-.05-.49-.11-.74-.18-.34-.09-.68-.19-1-.31-.21-.07-.43-.15-.64-.24-.12-.05-.24-.1-.35-.15-.39-.16-.76-.35-1.13-.56-.17-.1-.35-.2-.52-.31-.17-.1-.34-.21-.51-.33-.17-.11-.33-.23-.49-.35-.48-.36-.94-.76-1.37-1.18-.21-.21-.42-.43-.62-.65-.2-.23-.39-.46-.58-.7-.12-.16-.24-.33-.36-.49-.12-.17-.23-.33-.34-.5-.11-.17-.21-.35-.31-.52-.1-.17-.2-.34-.29-.52-.11-.21-.22-.42-.31-.64-.08-.16-.15-.32-.21-.48-.08-.19-.15-.38-.22-.58-.11-.29-.21-.59-.29-.9-.06-.21-.11-.42-.16-.64-.06-.25-.11-.51-.15-.76-.05-.24-.08-.49-.1-.74-.02-.09-.03-.17-.03-.26-.04-.41-.06-.82-.06-1.24,0-7.46,6.04-13.5,13.5-13.5s13.5,6.04,13.5,13.5Z"/><path class="d" d="M139.03,185.12c.43,.42,.89,.82,1.37,1.18-.48-.36-.94-.75-1.37-1.18Z"/><path class="d" d="M156.6,186.3c.48-.36,.94-.76,1.37-1.18-.43,.43-.89,.82-1.37,1.18Z"/><path class="d" d="M189,175.5c0,.33-.01,.65-.04,.97-.01,.18-.03,.35-.05,.53-.02,.25-.05,.5-.1,.74-.04,.25-.09,.51-.15,.76-.05,.22-.1,.43-.16,.64-.03,.13-.07,.25-.11,.37-.04,.15-.09,.29-.14,.42-.01,.04-.02,.08-.04,.11-.07,.2-.14,.39-.22,.58-.06,.16-.13,.32-.21,.48-.09,.22-.2,.43-.31,.64-.09,.18-.19,.35-.29,.52-.1,.17-.2,.35-.31,.52-.11,.17-.22,.33-.34,.5-.12,.16-.24,.33-.36,.49-.19,.24-.38,.47-.58,.7-.2,.22-.41,.44-.62,.65-.43,.42-.89,.82-1.37,1.18-.16,.12-.32,.24-.49,.35-.17,.12-.34,.23-.51,.33-.17,.11-.35,.21-.52,.31-.37,.21-.74,.4-1.13,.56-.11,.05-.23,.1-.35,.15-.21,.09-.43,.17-.64,.24-.14,.06-.29,.11-.45,.15-.13,.05-.26,.08-.4,.12-.05,.02-.1,.03-.15,.04-.25,.07-.49,.13-.74,.18-.88,.18-1.79,.27-2.72,.27s-1.84-.09-2.72-.27c-.25-.05-.49-.11-.74-.18-.05-.01-.1-.02-.15-.04-.14-.04-.27-.07-.4-.12-.16-.04-.31-.09-.45-.15-.21-.07-.43-.15-.64-.24-.12-.05-.24-.1-.35-.15-.39-.16-.76-.35-1.13-.56-.17-.1-.35-.2-.52-.31-.17-.1-.34-.21-.51-.33-.17-.11-.33-.23-.49-.35-.48-.36-.94-.76-1.37-1.18-.21-.21-.42-.43-.62-.65-.2-.23-.39-.46-.58-.7-.12-.16-.24-.33-.36-.49-.12-.17-.23-.33-.34-.5-.11-.17-.21-.35-.31-.52-.1-.17-.2-.34-.29-.52-.11-.21-.22-.42-.31-.64-.08-.16-.15-.32-.21-.48-.08-.19-.15-.38-.22-.58-.02-.03-.03-.07-.04-.11-.05-.13-.1-.27-.14-.42-.04-.12-.08-.24-.11-.37-.06-.21-.11-.42-.16-.64-.06-.25-.11-.51-.15-.76-.05-.24-.08-.49-.1-.74-.02-.09-.03-.17-.03-.26-.04-.41-.06-.82-.06-1.24,0-7.46,6.04-13.5,13.5-13.5s13.5,6.04,13.5,13.5Z"/><path class="d" d="M166.03,185.12c.43,.42,.89,.82,1.37,1.18-.48-.36-.94-.75-1.37-1.18Z"/><path class="d" d="M183.6,186.3c.48-.36,.94-.76,1.37-1.18-.43,.43-.89,.82-1.37,1.18Z"/><path class="d" d="M216,175.5c0,.33-.01,.65-.04,.97-.01,.18-.03,.35-.05,.53-.02,.25-.05,.5-.1,.74-.04,.25-.09,.51-.15,.76-.05,.22-.1,.43-.16,.64-.08,.31-.18,.61-.29,.9-.07,.2-.14,.39-.22,.58-.06,.16-.13,.32-.21,.48-.09,.22-.2,.43-.31,.64-.09,.18-.19,.35-.29,.52-.1,.17-.2,.35-.31,.52-.11,.17-.22,.33-.34,.5-.12,.16-.24,.33-.36,.49-.19,.24-.38,.47-.58,.7-.2,.22-.41,.44-.62,.65-.43,.42-.89,.82-1.37,1.18-.16,.12-.32,.24-.49,.35-.17,.12-.34,.23-.51,.33-.17,.11-.35,.21-.52,.31-.37,.21-.74,.4-1.13,.56-.11,.05-.23,.1-.35,.15-.21,.09-.43,.17-.64,.24-.32,.12-.66,.22-1,.31-.25,.07-.49,.13-.74,.18-.44,.09-.89,.15-1.34,.2s-.91,.07-1.38,.07-.93-.02-1.38-.07-.9-.11-1.34-.2c-.25-.05-.49-.11-.74-.18-.34-.09-.68-.19-1-.31-.21-.07-.43-.15-.64-.24-.12-.05-.24-.1-.35-.15-.39-.16-.76-.35-1.13-.56-.17-.1-.35-.2-.52-.31-.17-.1-.34-.21-.51-.33-.17-.11-.33-.23-.49-.35-.48-.36-.94-.76-1.37-1.18-.21-.21-.42-.43-.62-.65-.2-.23-.39-.46-.58-.7-.12-.16-.24-.33-.36-.49-.12-.17-.23-.33-.34-.5-.11-.17-.21-.35-.31-.52-.1-.17-.2-.34-.29-.52-.11-.21-.22-.42-.31-.64-.08-.16-.15-.32-.21-.48-.08-.19-.15-.38-.22-.58-.11-.29-.21-.59-.29-.9-.06-.21-.11-.42-.16-.64-.06-.25-.11-.51-.15-.76-.05-.24-.08-.49-.1-.74-.02-.09-.03-.17-.03-.26-.04-.41-.06-.82-.06-1.24,0-7.46,6.04-13.5,13.5-13.5s13.23,5.77,13.49,13c.01,.17,.01,.33,.01,.5Z"/><path class="d" d="M193.03,185.12c.43,.42,.89,.82,1.37,1.18-.48-.36-.94-.75-1.37-1.18Z"/><path class="d" d="M210.6,186.3c.48-.36,.94-.76,1.37-1.18-.43,.43-.89,.82-1.37,1.18Z"/><path class="d" d="M27,202.5c0,1.22-.16,2.41-.47,3.53-4.09-5.31-7.77-10.95-11-16.87,6.49,.97,11.47,6.57,11.47,13.34Z"/><path class="d" d="M54,202.5c0,7.46-6.04,13.5-13.5,13.5-2.82,0-5.44-.87-7.61-2.34,0-.01-.01-.01-.01-.01-1.57-1.74-3.11-3.54-4.58-5.37t-.01-.01c-.83-1.75-1.29-3.7-1.29-5.77,0-7.46,6.04-13.5,13.5-13.5s13.5,6.04,13.5,13.5Z"/><circle class="d" cx="67.5" cy="202.5" r="13.5"/><circle class="d" cx="94.5" cy="202.5" r="13.5"/><circle class="d" cx="121.5" cy="202.5" r="13.5"/><circle class="d" cx="148.5" cy="202.5" r="13.5"/><circle class="d" cx="175.5" cy="202.5" r="13.5"/><circle class="d" cx="202.5" cy="202.5" r="13.5"/><path class="d" d="M54,229.5c0,.94-.1,1.86-.28,2.75-6.43-4.58-12.41-9.75-17.88-15.42,1.45-.54,3.02-.83,4.66-.83,7.46,0,13.5,6.04,13.5,13.5Z"/><path class="d" d="M81,229.5c0,6.28-4.29,11.56-10.1,13.07h-.01c-5.77-2.87-11.28-6.17-16.51-9.86-.25-1.03-.38-2.1-.38-3.21,0-7.46,6.04-13.5,13.5-13.5s13.5,6.04,13.5,13.5Z"/><circle class="d" cx="94.5" cy="229.5" r="13.5"/><circle class="d" cx="121.5" cy="229.5" r="13.5"/><circle class="d" cx="148.5" cy="229.5" r="13.5"/><circle class="d" cx="175.5" cy="229.5" r="13.5"/><path class="d" d="M214.15,222.67c-6.62,6.02-13.87,11.36-21.65,15.91-2.17-2.4-3.5-5.58-3.5-9.08,0-7.46,6.04-13.5,13.5-13.5,4.97,0,9.3,2.68,11.65,6.67Z"/><path class="d" d="M107.83,254.41c-8.28-1.3-16.29-3.4-23.96-6.23,2.47-3.15,6.31-5.18,10.63-5.18,6.75,0,12.34,4.95,13.33,11.41Z"/><path class="d" d="M134.98,255.81c-2.31,.13-4.64,.19-6.98,.19-6.75,0-13.37-.52-19.84-1.54,.97-6.49,6.57-11.46,13.34-11.46,7.23,0,13.13,5.67,13.48,12.81Z"/><path class="d" d="M161.11,251.68c-8.39,2.24-17.12,3.65-26.09,4.13,.35-7.14,6.25-12.81,13.48-12.81,5.76,0,10.67,3.6,12.61,8.68Z"/><path class="d" d="M181.4,244.36c-5.87,2.7-11.98,4.96-18.28,6.76,2.07-4.78,6.83-8.12,12.38-8.12,2.12,0,4.12,.49,5.9,1.36Z"/><path class="d" d="M232.25,53.72c-.89,.18-1.81,.28-2.75,.28-7.46,0-13.5-6.04-13.5-13.5,0-1.64,.29-3.21,.83-4.66,5.67,5.47,10.84,11.45,15.42,17.88Z"/><path class="d" d="M242.57,70.89h0c-1.51,5.82-6.79,10.11-13.07,10.11-7.46,0-13.5-6.04-13.5-13.5s6.04-13.5,13.5-13.5c1.11,0,2.18,.13,3.21,.38,3.69,5.23,6.99,10.74,9.86,16.51Z"/><circle class="d" cx="229.5" cy="94.5" r="13.5"/><circle class="d" cx="229.5" cy="121.5" r="13.5"/><circle class="d" cx="229.5" cy="148.5" r="13.5"/><circle class="d" cx="229.5" cy="175.5" r="13.5"/><path class="d" d="M238.58,192.5c-4.55,7.78-9.89,15.03-15.91,21.65-3.99-2.35-6.67-6.68-6.67-11.65,0-7.46,6.04-13.5,13.5-13.5,3.5,0,6.68,1.33,9.08,3.5Z"/><path class="d" d="M254.41,107.83c-6.46-.99-11.41-6.58-11.41-13.33,0-4.32,2.03-8.16,5.18-10.63,2.83,7.67,4.93,15.68,6.23,23.96Z"/><path class="d" d="M256,128c0,2.34-.06,4.67-.19,6.98-7.14-.35-12.81-6.25-12.81-13.48,0-6.77,4.97-12.37,11.46-13.34,1.02,6.47,1.54,13.09,1.54,19.84Z"/><path class="d" d="M255.81,135.02c-.48,8.97-1.89,17.7-4.13,26.09-5.08-1.94-8.68-6.85-8.68-12.61,0-7.23,5.67-13.13,12.81-13.48Z"/><path class="d" d="M251.12,163.12c-1.8,6.3-4.06,12.41-6.76,18.28-.87-1.78-1.36-3.78-1.36-5.9,0-5.55,3.34-10.31,8.12-12.38Z"/></g></g></svg>