<?xml version="1.0" encoding="UTF-8"?><svg xmlns="http://www.w3.org/2000/svg" xmlns:xlink="http://www.w3.org/1999/xlink" viewBox="0 0 256 256"><defs><style>.e{fill:#fff;}.f{fill:url(#d);}</style><linearGradient id="d" x1="214.01" y1="213.81" x2="43.2" y2="41.4" gradientTransform="matrix(1, 0, 0, 1, 0, 0)" gradientUnits="userSpaceOnUse"><stop offset=".22" stop-color="#fff" stop-opacity="0"/><stop offset=".95" stop-color="#000"/></linearGradient></defs><g id="a"/><g id="b"><g id="c"><circle class="f" cx="128.5" cy="127.5" r="125.5"/><path class="e" d="M128,8c32.05,0,62.19,12.48,84.85,35.15,22.67,22.67,35.15,52.8,35.15,84.85s-12.48,62.19-35.15,84.85c-22.66,22.67-52.8,35.15-84.85,35.15s-62.19-12.48-84.85-35.15c-22.67-22.66-35.15-52.8-35.15-84.85s12.48-62.19,35.15-84.85C65.81,20.48,95.95,8,128,8m0-8C57.31,0,0,57.31,0,128s57.31,128,128,128,128-57.31,128-128S198.69,0,128,0h0Z"/></g></g></svg>