<?xml version="1.0" encoding="UTF-8"?><svg xmlns="http://www.w3.org/2000/svg" viewBox="0 0 257.21 177"><defs><style>.d,.e{fill:#fff;}.e{stroke:#fff;stroke-miterlimit:10;}</style></defs><g id="a"/><g id="b"><g id="c"><g><path class="d" d="M92.26,99.33c-.77-3.03-1.16-6.14-1.16-9.28,0-20.68,16.82-37.5,37.5-37.5,3.14,0,6.26,.39,9.28,1.16l-45.62,45.62Z"/><path class="d" d="M128.6,53.05c2.8,0,5.59,.31,8.3,.94l-44.36,44.36c-.62-2.71-.94-5.5-.94-8.3,0-20.4,16.6-37,37-37m0-1c-20.99,0-38,17.02-38,38,0,3.55,.49,6.99,1.4,10.25l46.85-46.85c-3.26-.91-6.7-1.4-10.25-1.4h0Z"/></g><g><path class="d" d="M128.6,127.55c-3.7,0-7.31-.53-10.77-1.57l46.7-46.7c1.04,3.47,1.57,7.09,1.57,10.77,0,20.68-16.82,37.5-37.5,37.5Z"/><path class="d" d="M164.29,80.23c.87,3.17,1.32,6.47,1.32,9.82,0,20.4-16.6,37-37,37-3.36,0-6.65-.44-9.82-1.32l45.5-45.5m.48-1.89l-47.87,47.87c3.68,1.2,7.62,1.84,11.71,1.84,20.99,0,38-17.01,38-38,0-4.08-.64-8.02-1.84-11.71h0Z"/></g><path class="e" d="M203.77,39.33l-29.64,29.64c2.87,6.26,4.47,13.24,4.47,20.58,0,27.34-22.16,49.5-49.5,49.5-7.34,0-14.31-1.6-20.58-4.47l-21.48,21.48c12.57,4.26,26.31,6.89,41.06,6.89,39,0,71.12-18.36,93.5-36.69,22.38-18.36,35-36.71,35-36.71,0,0-19.32-28.68-52.83-50.22Zm-74.67,.72c6.83,0,13.34,1.38,19.26,3.89h.01l21.19-21.2c-12.41-4.14-25.94-6.69-40.46-6.69C51.1,16.05,.6,89.45,.6,89.45c0,0,19.13,28.41,52.35,49.9l30.54-30.53h0c-2.51-5.93-3.89-12.44-3.89-19.27,0-27.34,22.16-49.5,49.5-49.5Z"/><path class="e" d="M51.1,176.5c-2.18,0-4.35-.83-6.01-2.49-3.32-3.32-3.32-8.7,0-12.02L204.09,2.99c3.32-3.32,8.7-3.32,12.02,0,3.32,3.32,3.32,8.7,0,12.02L57.12,174.01c-1.66,1.66-3.83,2.49-6.01,2.49Z"/></g></g></svg>