<?xml version="1.0" encoding="UTF-8"?><svg xmlns="http://www.w3.org/2000/svg" viewBox="0 0 256 256"><defs><style>.d{fill:#fff;}</style></defs><g id="a"/><g id="b"><g id="c"><path class="d" d="M128,9c31.79,0,61.67,12.38,84.15,34.85,22.48,22.48,34.85,52.36,34.85,84.15s-12.38,61.67-34.85,84.15c-22.48,22.48-52.36,34.85-84.15,34.85s-61.67-12.38-84.15-34.85c-22.48-22.48-34.85-52.36-34.85-84.15s12.38-61.67,34.85-84.15C66.33,21.38,96.21,9,128,9m0-9C57.31,0,0,57.31,0,128s57.31,128,128,128,128-57.31,128-128S198.69,0,128,0h0Z"/><path class="d" d="M256,128c0,70.52-57.04,127.73-127.5,128V0c70.46,.27,127.5,57.48,127.5,128Z"/></g></g></svg>