<?xml version="1.0" encoding="UTF-8"?><svg xmlns="http://www.w3.org/2000/svg" viewBox="0 0 257.21 147.89"><defs><style>.d,.e{fill:#fff;}.e{stroke:#fff;stroke-miterlimit:10;}</style></defs><g id="a"/><g id="b"><g id="c"><g><circle class="d" cx="128.6" cy="74.5" r="37.5"/><path class="d" d="M128.6,37.5c20.4,0,37,16.6,37,37s-16.6,37-37,37-37-16.6-37-37,16.6-37,37-37m0-1c-20.99,0-38,17.01-38,38s17.01,38,38,38,38-17.01,38-38-17.01-38-38-38h0Z"/></g><path class="e" d="M129.1,.5C51.1,.5,.6,73.89,.6,73.89c0,0,49.5,73.5,127.5,73.5,39,0,71.12-18.35,93.5-36.69,22.38-18.35,35-36.7,35-36.7,0,0-49.5-73.5-127.5-73.5Zm0,123c-27.34,0-49.5-22.16-49.5-49.5s22.16-49.5,49.5-49.5,49.5,22.16,49.5,49.5-22.16,49.5-49.5,49.5Z"/></g></g></svg>